# xmcd CD database file
#
# Track frame offsets:
#	150
#	23237
#	45352
#	61890
#	75230
#	93587
#	115102
#	137845
#	154292
#	171425
#	189997
#	203462
#	223037
#	249815
#	271202
#	279142
#	290162
#
# Disc length: 4018 seconds
#
# Revision: 1
# Processed by: cddbd v1.5.1PL0 Copyright (c) Steve Scherf et al.
# Submitted via: CDex 1.51
#
DISCID=e50fb011
DTITLE=ELIZETH CARDOSO - EPOCA DE OURO  CD-1
DYEAR=1968
DGENRE=Jazz
TTITLE0=Suite Elizetheana
TTITLE1=Cudade Vazia
TTITLE2=Ferradeira Primavera
TTITLE3=Ginga Muxique
TTITLE4=Nossos Momentos
TTITLE5=E Luxo So
TTITLE6=Nos E O Mar
TTITLE7=Mundo Melhor
TTITLE8=Estrada Branca
TTITLE9=Serenata Do Adeus
TTITLE10=Tem Do
TTITLE11=Murmurando
TTITLE12=Noites Cariocas
TTITLE13=Mulata Assanhada
TTITLE14=Inocencia
TTITLE15=Foi Numa Festa
TTITLE16=Jamais
EXTD=YEAR: 1968
EXTT0=
EXTT1=
EXTT2=
EXTT3=
EXTT4=
EXTT5=
EXTT6=
EXTT7=
EXTT8=
EXTT9=
EXTT10=
EXTT11=
EXTT12=
EXTT13=
EXTT14=
EXTT15=
EXTT16=
PLAYORDER=
